<svg width="1512" height="716" viewBox="0 0 1512 716" fill="none" xmlns="http://www.w3.org/2000/svg">
<g clip-path="url(#clip0_164_4358)">
<rect width="1532" height="716" transform="translate(-20)" fill="white"/>
<rect x="-20" width="1532" height="867" fill="#F3F3FF"/>
<path d="M2290.6 937.547C2265.41 725.151 2163.18 522.731 2007.18 376.395C1962.8 334.759 1912.12 296.523 1852.7 283.39C1681.02 245.455 1522.35 396.944 1393.79 487.882C1238.63 597.641 1085.89 711.38 922.109 808.21C830.157 862.575 720.406 912.781 620.019 876.279C518.364 839.312 467.368 729.378 415.145 634.655C354.291 524.278 276.666 420.382 173.076 348.565C69.495 276.755 -62.7934 240.003 -185.316 269.597C-281.262 292.766 -363.602 353.537 -437.513 418.964C-631.721 590.874 -787.901 805.508 -891.743 1043.17" stroke="#D0D0FF" stroke-width="0.864782" stroke-miterlimit="10"/>
<path d="M2294.74 927.697C2270.37 722.148 2166.54 530.78 2007.73 384.548C1963.39 343.722 1913.27 305.91 1854.67 292.538C1685.02 253.708 1528.31 397.932 1400.01 485.826C1263.22 579.537 1128.26 677.876 984.416 765.748C966.733 776.59 948.945 787.265 931.026 797.741C839.758 851.118 731.321 900.582 631.991 866.172C531.351 831.347 479.787 725.959 427.083 635.256C365.522 529.631 287.799 430.243 185.035 361.712C82.0122 293.289 -48.7145 258.574 -169.909 287.653C-252.271 307.4 -324.711 354.226 -390.495 407.332C-400.683 415.546 -410.647 423.973 -420.569 432.349C-617.453 598.538 -773.429 796.832 -873.92 1026.84" stroke="#D0D0FF" stroke-width="0.864782" stroke-miterlimit="10"/>
<path d="M2298.88 917.847C2275.32 719.155 2169.92 538.821 2008.28 392.711C1963.98 352.677 1914.44 315.315 1856.64 301.694C1689.02 261.969 1534.28 398.938 1406.23 483.788C1270.72 573.576 1136.91 669.431 992.935 755.915C975.382 766.542 957.724 777.011 939.943 787.299C849.359 839.688 742.228 888.41 643.955 856.091C544.323 823.418 492.19 722.567 439.005 635.893C376.737 535.027 298.925 440.131 196.97 374.896C94.5045 309.85 -34.6519 277.18 -154.526 305.753C-236.153 325.186 -308.149 370.558 -373.661 421.708C-383.815 429.617 -393.709 437.79 -403.65 445.778C-603.318 606.266 -758.974 788.207 -856.122 1010.54" stroke="#D0D0FF" stroke-width="0.864782" stroke-miterlimit="10"/>
<path d="M2303.02 908.005C2280.27 716.161 2173.34 546.851 2008.83 400.873C1964.6 361.622 1915.6 324.71 1858.62 310.85C1693.02 270.23 1540.28 399.951 1412.45 481.74C1278.25 567.614 1145.36 660.611 1001.46 746.08C984.012 756.451 966.51 766.757 948.868 776.846C858.967 828.248 753.151 876.229 655.935 846.009C557.319 815.479 504.783 719.068 450.943 636.528C388.167 540.282 310.238 449.751 208.929 388.077C107.184 326.144 -20.5727 295.784 -139.109 323.851C-220.002 342.97 -291.545 386.897 -356.803 436.082C-366.931 443.687 -376.747 451.605 -386.698 459.205C-589.252 613.994 -744.493 779.572 -838.283 994.244" stroke="#D0D0FF" stroke-width="0.864782" stroke-miterlimit="10"/>
<path d="M2307.16 898.155C2285.22 713.167 2176.78 554.865 2009.37 409.027C1965.21 370.551 1916.76 334.098 1860.59 319.997C1697.02 278.474 1546.29 400.947 1418.67 479.685C1285.81 561.652 1153.94 652.032 1009.98 736.237C992.642 746.378 975.279 756.494 957.775 766.386C868.559 816.809 764.049 864.039 667.89 835.911C570.281 807.524 517.226 715.615 462.855 637.139C399.431 545.601 321.403 459.528 220.863 401.226C119.723 342.586 -6.51126 314.355 -123.728 341.909C-203.886 360.714 -274.984 403.195 -339.971 450.415C-350.065 457.716 -359.82 465.37 -369.78 472.599C-575.33 621.693 -730.047 770.913 -820.486 977.915" stroke="#D0D0FF" stroke-width="0.864782" stroke-miterlimit="10"/>
<path d="M2311.3 888.305C2290.17 710.165 2180.24 562.861 2009.93 417.182C1965.84 379.48 1917.93 343.494 1862.57 329.145C1701.02 286.727 1552.34 401.959 1424.9 477.638C1293.4 555.724 1162.55 643.471 1018.51 726.395C1001.29 736.305 984.068 746.232 966.703 755.927C878.17 805.361 774.974 851.85 679.872 825.821C583.271 799.578 529.697 712.171 474.796 637.766C410.722 550.928 332.579 469.321 232.816 414.401C132.275 359.053 7.56209 332.953 -108.325 360C-187.749 378.482 -258.403 419.518 -323.127 464.783C-333.194 471.779 -342.889 479.178 -352.85 486.02C-561.506 629.403 -715.589 762.271 -802.678 961.603" stroke="#D0D0FF" stroke-width="0.864782" stroke-miterlimit="10"/>
<path d="M2315.44 878.455C2295.13 707.163 2183.73 570.84 2010.47 425.345C1966.47 388.4 1919.08 352.89 1864.53 338.302C1705.02 294.989 1558.4 402.988 1431.12 475.592C1301 549.803 1171.15 634.909 1027.03 716.561C1009.93 726.249 992.846 735.97 975.62 745.484C887.771 793.931 785.89 839.678 691.836 815.741C596.251 791.648 542.149 708.735 486.718 638.402C421.986 556.264 343.737 479.132 244.759 427.584C144.807 375.529 21.633 351.55 -92.9339 378.1C-171.615 396.268 -241.824 435.858 -306.285 479.159C-316.318 485.85 -325.96 492.978 -335.914 499.448C-547.777 637.107 -701.116 753.646 -784.863 945.308" stroke="#D0D0FF" stroke-width="0.864782" stroke-miterlimit="10"/>
<path d="M2319.57 868.604C2300.08 704.168 2187.26 578.791 2011.02 433.497C1967.12 397.309 1920.21 362.395 1866.51 347.447C1708.93 303.571 1564.5 404.014 1437.35 473.534C1308.66 543.896 1179.77 626.345 1035.56 706.717C1018.59 716.173 1001.64 725.705 984.551 735.022C897.386 782.49 796.811 827.486 703.822 805.64C609.245 783.691 554.615 705.271 498.671 639.011C433.281 561.571 354.916 488.906 256.725 440.739C157.353 391.985 35.7265 370.127 -77.5117 396.162C-155.458 414.017 -225.135 452.294 -289.422 493.489C-299.419 499.893 -309.018 506.742 -318.964 512.84C-534.145 644.743 -686.638 744.976 -767.034 928.976" stroke="#D0D0FF" stroke-width="0.864782" stroke-miterlimit="10"/>
<path d="M2323.71 858.753C2305.03 701.166 2190.8 586.726 2011.56 441.652C1967.77 406.203 1921.37 371.799 1868.48 356.587C1712.91 311.849 1570.61 405.049 1443.57 471.479C1316.31 538.015 1188.38 617.799 1044.08 696.866C1027.23 706.1 1010.42 715.434 993.46 724.553C906.979 771.034 807.718 815.288 715.778 795.542C622.217 775.736 567.041 701.811 510.584 639.63C444.528 566.882 366.058 498.709 268.659 453.896C169.869 408.444 49.7809 388.707 -62.1284 414.237C-139.34 431.777 -208.564 468.617 -272.588 507.839C-282.551 513.947 -292.115 520.516 -302.037 526.243C-520.655 652.343 -672.182 736.326 -749.228 912.655" stroke="#D0D0FF" stroke-width="0.864782" stroke-miterlimit="10"/>
<path d="M2327.85 848.903C2309.98 698.172 2194.37 594.635 2012.11 449.806C1968.43 415.097 1922.53 381.204 1870.46 365.734C1716.91 320.136 1576.76 406.101 1449.79 469.423C1324.01 532.151 1197.01 609.245 1052.61 687.023C1035.87 696.035 1019.2 705.172 1002.38 714.093C916.596 759.585 818.632 803.099 727.758 785.444C635.204 767.789 579.492 698.349 522.522 640.248C455.792 572.192 377.206 508.502 280.618 467.061C182.393 424.919 63.8682 407.295 -46.7209 432.31C-123.198 449.529 -191.968 484.947 -255.731 522.189C-265.668 527.992 -275.187 534.282 -285.093 539.645C-507.243 659.886 -657.711 727.666 -731.397 896.334" stroke="#D0D0FF" stroke-width="0.864782" stroke-miterlimit="10"/>
<path d="M2331.99 839.063C2314.93 695.179 2197.97 602.537 2012.66 457.978C1969.1 424 1923.69 390.618 1872.43 374.9C1720.89 328.432 1582.93 407.195 1456.01 467.386C1331.73 526.338 1205.63 600.726 1061.13 677.19C1044.52 685.979 1027.98 694.919 1011.3 703.651C926.199 748.164 829.55 790.935 739.724 775.372C648.186 759.86 591.921 694.906 534.446 640.885C467.032 577.521 388.341 518.331 292.555 480.245C194.894 441.414 77.9245 425.902 -31.3358 450.411C-107.078 467.315 -175.395 501.297 -238.904 536.566C-248.806 542.064 -258.299 548.075 -268.18 553.083C-493.972 667.408 -643.261 719.051 -713.605 880.048" stroke="#D0D0FF" stroke-width="0.864782" stroke-miterlimit="10"/>
<path d="M2336.13 829.211C2319.88 692.176 2201.59 610.401 2013.21 466.131C1969.78 432.867 1924.84 400.021 1874.4 384.046C1724.89 336.709 1589.12 408.287 1462.24 465.33C1339.48 520.522 1214.27 592.196 1069.65 667.346C1053.17 675.913 1036.76 684.655 1020.23 693.19C935.807 736.715 840.464 778.745 751.703 765.272C661.173 751.903 604.355 691.444 546.384 641.503C478.278 582.822 399.472 528.141 304.513 493.409C207.408 457.888 92.0109 444.48 -15.9203 468.491C-90.9283 485.082 -158.792 517.626 -222.038 550.923C-231.914 556.116 -241.372 561.848 -251.22 566.492C-480.758 674.811 -628.773 710.406 -695.767 863.734" stroke="#D0D0FF" stroke-width="0.864782" stroke-miterlimit="10"/>
<path d="M2340.27 819.363C2324.84 689.184 2205.24 618.234 2013.75 474.287C1970.46 441.737 1926 409.419 1876.37 393.196C1728.87 344.981 1595.34 409.406 1468.45 463.284C1347.25 514.758 1222.89 583.686 1078.17 657.514C1061.81 665.858 1045.54 674.403 1029.14 682.74C945.399 725.278 851.391 766.379 763.658 755.193C674.165 743.781 616.756 688.003 558.305 642.141C489.491 588.153 410.588 537.98 316.448 506.586C219.891 474.392 106.065 463.079 -0.537895 486.576C-74.8113 502.853 -142.23 533.959 -205.214 565.283C-215.055 570.181 -224.496 575.608 -234.31 579.906C-467.681 682.128 -614.335 701.758 -677.978 847.424" stroke="#D0D0FF" stroke-width="0.864782" stroke-miterlimit="10"/>
<path d="M2344.41 809.511C2329.79 686.18 2208.91 626.038 2014.31 482.439C1971.15 450.595 1927.16 418.813 1878.35 402.342C1732.87 353.249 1601.58 410.546 1474.69 461.227C1355.06 509.008 1231.55 575.163 1086.71 647.661C1070.48 655.783 1054.33 664.13 1038.07 672.269C955.016 713.828 862.314 754.171 775.647 745.084C687.161 735.807 629.173 684.533 570.252 642.741C500.729 593.445 421.72 547.781 328.415 519.732C232.398 490.866 120.16 481.648 14.8782 504.639C-58.6607 520.594 -125.635 550.272 -188.347 579.623C-198.163 584.216 -207.585 589.348 -217.358 593.307C-454.657 689.325 -599.854 693.105 -660.147 831.101" stroke="#D0D0FF" stroke-width="0.864782" stroke-miterlimit="10"/>
<path d="M2348.55 799.661C2334.74 683.186 2212.62 633.808 2014.85 490.601C1971.84 459.462 1928.31 428.217 1880.32 411.497C1736.85 361.519 1607.85 411.721 1480.91 459.18C1362.88 503.3 1240.19 566.667 1095.23 637.827C1079.12 645.734 1063.11 653.876 1046.99 661.826C964.617 702.397 873.229 741.99 787.61 735.003C700.132 727.868 641.565 681.089 582.173 643.376C511.925 598.773 432.819 557.634 340.349 532.915C244.863 507.385 134.223 500.253 30.261 522.738C-42.5433 538.379 -109.073 566.62 -171.523 593.998C-181.304 598.287 -190.708 603.122 -200.439 606.735C-441.746 696.424 -585.399 684.471 -642.349 814.805" stroke="#D0D0FF" stroke-width="0.864782" stroke-miterlimit="10"/>
<path d="M2352.69 789.81C2339.69 680.184 2216.34 641.553 2015.4 498.755C1972.55 468.304 1929.48 437.604 1882.3 420.645C1740.84 369.78 1614.15 412.929 1487.13 457.132C1370.73 497.634 1248.85 558.179 1103.75 627.992C1087.77 635.677 1071.89 643.621 1055.91 651.374C974.226 690.957 884.144 729.8 799.591 724.92C713.12 719.921 653.967 677.654 594.112 644.011C523.13 604.11 443.937 567.496 352.31 546.096C257.356 523.92 148.303 518.858 45.6783 540.828C-26.3914 556.155 -92.4762 582.958 -154.656 608.356C-164.411 612.34 -173.806 616.863 -183.486 620.145C-428.87 703.381 -570.917 675.828 -624.509 798.492" stroke="#D0D0FF" stroke-width="0.864782" stroke-miterlimit="10"/>
<path d="M2356.83 779.961C2344.64 677.191 2220.09 649.256 2015.94 506.91C1973.25 477.138 1930.63 447.001 1884.27 429.793C1744.83 378.042 1620.46 414.18 1493.35 455.078C1378.6 492.002 1257.5 549.692 1112.27 618.142C1096.42 625.613 1080.67 633.342 1064.82 640.906C983.818 679.511 895.041 717.603 811.545 714.815C726.082 711.958 666.326 674.204 606.024 644.615C534.301 609.423 455.019 577.334 364.243 559.238C269.812 540.415 162.364 537.413 61.0596 558.886C-10.2673 573.891 -75.9156 599.257 -137.833 622.69C-147.562 626.369 -156.94 630.58 -166.577 633.54C-416.102 710.164 -556.48 667.162 -606.721 782.163" stroke="#D0D0FF" stroke-width="0.864782" stroke-miterlimit="10"/>
<path d="M2360.97 770.11C2349.6 674.188 2223.87 656.931 2016.5 515.064C1973.97 485.971 1931.79 456.388 1886.24 438.932C1748.84 386.277 1626.8 415.454 1499.58 453.014C1386.49 486.403 1266.17 541.204 1120.8 608.29C1105.08 615.547 1089.46 623.071 1073.74 630.437C993.428 668.054 905.949 705.405 823.527 704.716C739.071 704.011 678.712 670.769 617.973 645.233C545.49 614.761 466.129 587.196 376.204 572.403C282.288 556.951 176.445 556.001 76.4695 576.968C5.87723 591.658 -59.3266 615.579 -120.972 637.048C-130.675 640.423 -140.045 644.313 -149.622 646.951C-403.343 716.812 -541.989 658.518 -588.888 765.85" stroke="#D0D0FF" stroke-width="0.864782" stroke-miterlimit="10"/>
<path d="M2365.11 760.27C2354.55 671.196 2227.66 664.566 2017.04 523.236C1974.68 494.814 1932.95 465.794 1888.21 448.098C1752.82 394.548 1633.15 416.805 1505.79 450.985C1394.39 480.881 1274.84 532.769 1129.32 598.466C1113.72 605.509 1098.23 612.827 1082.66 620.004C1003.03 656.633 916.854 693.242 835.489 694.644C752.041 696.083 691.062 667.371 629.893 645.878C556.644 620.142 477.219 597.102 388.145 585.595C294.745 573.531 190.514 574.616 91.8674 595.068C22.0098 609.445 -42.758 631.92 -104.124 651.424C-113.793 654.494 -123.162 658.055 -132.689 660.38C-390.643 723.311 -527.527 649.886 -571.075 749.556" stroke="#D0D0FF" stroke-width="0.864782" stroke-miterlimit="10"/>
<path d="M2369.25 750.419C2359.49 668.202 2231.48 672.165 2017.59 531.39C1975.4 503.622 1934.11 475.181 1890.19 457.245C1756.83 402.784 1639.53 418.188 1512.02 448.929C1402.31 475.373 1283.51 524.314 1137.85 588.623C1122.37 595.452 1107.02 602.564 1091.59 609.543C1012.64 645.193 927.77 681.052 847.47 684.546C765.021 688.136 703.43 663.954 641.832 646.488C567.817 625.505 488.312 606.981 400.097 598.752C307.213 590.083 204.585 593.195 107.267 613.142C38.1444 627.204 -26.1791 648.226 -87.2825 665.774C-96.9248 668.54 -106.277 671.771 -115.761 673.791C-377.97 729.615 -513.071 641.243 -553.269 733.243" stroke="#D0D0FF" stroke-width="0.864782" stroke-miterlimit="10"/>
<path d="M2373.39 740.568C2364.45 665.198 2235.33 679.711 2018.13 539.543C1976.12 512.429 1935.27 484.568 1892.15 466.392C1760.82 411.027 1645.89 419.63 1518.24 446.873C1410.24 469.915 1292.19 515.867 1146.36 578.779C1131.02 585.394 1115.79 592.3 1100.5 599.082C1022.24 633.745 938.677 668.87 859.434 674.455C777.992 680.188 715.783 660.569 653.754 647.115C578.964 630.893 499.396 616.894 412.04 611.916C319.672 606.652 218.656 611.782 122.659 631.223C54.2705 644.963 -9.617 664.539 -70.4407 680.131C-80.0569 682.593 -89.4006 685.486 -98.8247 687.201C-365.302 735.724 -498.607 632.591 -535.454 716.929" stroke="#D0D0FF" stroke-width="0.864782" stroke-miterlimit="10"/>
<path d="M2377.52 730.718C2369.4 662.204 2239.2 687.224 2018.68 547.697C1976.86 521.236 1936.43 493.955 1894.13 475.539C1764.82 419.254 1652.28 421.131 1524.46 444.817C1418.18 464.508 1300.87 507.438 1154.89 568.928C1139.68 575.336 1124.57 582.029 1109.42 588.613C1031.84 622.288 949.582 656.68 871.404 664.348C790.971 672.241 728.142 657.178 665.682 647.725C590.128 636.29 510.488 626.798 423.989 625.073C332.13 623.239 232.726 630.362 138.057 649.288C70.4032 662.715 6.96001 680.836 -53.6009 694.472C-63.1826 696.629 -72.5265 699.177 -81.899 700.595C-352.641 741.631 -484.144 623.932 -517.641 700.6" stroke="#D0D0FF" stroke-width="0.864782" stroke-miterlimit="10"/>
<path d="M2381.66 720.868C2374.35 659.202 2243.09 694.687 2019.23 555.86C1977.59 530.036 1937.59 503.343 1896.1 484.695C1768.82 427.49 1658.68 422.708 1530.68 442.779C1426.11 459.17 1309.55 499.043 1163.41 559.103C1148.33 565.297 1133.35 571.784 1118.34 578.17C1041.44 610.866 960.49 644.516 883.377 654.275C803.952 664.32 740.504 653.829 677.622 648.361C601.294 641.73 521.59 636.754 435.941 638.256C344.599 639.86 246.806 648.959 153.466 667.387C86.5468 680.5 23.5394 697.159 -36.7416 708.848C-46.2972 710.7 -55.6331 712.902 -64.9454 714.031C-339.931 747.378 -469.662 615.315 -499.809 684.312" stroke="#D0D0FF" stroke-width="0.864782" stroke-miterlimit="10"/>
<path d="M2385.8 711.018C2379.31 656.208 2247.01 702.098 2019.78 564.014C1978.32 538.826 1938.77 512.721 1898.07 493.843C1772.83 435.709 1665.07 424.344 1536.91 440.723C1434.05 453.865 1318.25 490.639 1171.94 549.26C1156.99 555.248 1142.14 561.521 1127.26 567.718C1051.05 599.427 971.407 632.352 895.351 644.185C816.933 656.39 752.867 650.479 689.553 648.988C612.461 647.169 532.685 646.7 447.894 651.43C357.078 656.488 260.886 667.555 168.867 685.478C102.683 698.277 40.1105 713.474 -19.8989 723.214C-29.4284 724.762 -38.7479 726.609 -48.0168 727.451C-327.209 752.913 -455.205 606.672 -482.001 668.008" stroke="#D0D0FF" stroke-width="0.864782" stroke-miterlimit="10"/>
<path d="M2389.94 701.169C2384.25 653.208 2250.95 709.467 2020.32 572.169C1979.06 547.601 1939.92 522.102 1900.04 502.992C1776.84 443.929 1671.46 426.057 1543.13 438.669C1441.98 448.612 1326.94 482.244 1180.46 539.41C1165.63 545.193 1150.92 551.251 1136.18 557.251C1060.66 587.972 982.321 620.164 907.322 634.079C829.912 648.444 765.244 647.13 701.482 649.599C623.642 652.609 543.787 656.657 459.835 664.58C369.546 673.11 274.947 686.128 184.257 703.536C118.807 716.013 56.6791 729.756 -3.059 737.54C-12.5627 738.776 -21.8741 740.268 -31.091 740.829C-314.453 758.212 -440.751 597.998 -464.197 651.663" stroke="#D0D0FF" stroke-width="0.864782" stroke-miterlimit="10"/>
<path d="M2394.08 691.326C2389.21 650.213 2254.92 716.791 2020.88 580.33C1979.8 556.382 1941.1 531.487 1902.02 512.138C1780.86 452.137 1677.83 427.844 1549.35 436.621C1449.9 443.416 1335.64 473.881 1188.98 529.575C1174.29 535.151 1159.71 540.987 1145.1 546.798C1070.26 576.539 993.258 608.141 919.286 623.997C842.921 640.664 777.616 643.813 713.404 650.226C634.818 658.081 554.89 666.628 471.779 677.753C382.024 689.762 289.019 704.723 199.649 721.625C134.933 733.788 73.2413 746.061 13.7749 751.906C4.30573 752.837 -4.99805 753.966 -14.1627 754.256C-301.624 763.355 -426.287 589.362 -446.39 635.367" stroke="#D0D0FF" stroke-width="0.864782" stroke-miterlimit="10"/>
<path d="M2398.22 681.476C2394.16 647.219 2258.9 724.057 2021.42 588.493C1980.54 565.156 1942.26 540.875 1903.99 521.294C1784.88 460.356 1684.18 429.718 1555.57 434.574C1457.79 438.264 1344.34 465.528 1197.5 519.733C1182.95 525.103 1168.47 530.725 1154.01 536.338C1079.86 565.092 1004.17 595.952 931.256 613.899C855.899 632.718 790.009 640.48 725.332 650.845C646.024 663.553 566.008 676.616 483.728 690.918C394.517 706.425 303.088 723.312 215.055 739.708C151.083 751.557 89.8258 762.358 30.6311 766.264C21.188 766.891 11.9085 767.648 2.77916 767.667C-288.701 768.286 -411.816 580.72 -428.569 619.054" stroke="#D0D0FF" stroke-width="0.864782" stroke-miterlimit="10"/>
<path d="M2402.36 671.625C2399.11 644.217 2262.91 731.263 2021.97 596.647C1981.29 573.92 1943.42 550.245 1905.97 530.441C1788.9 468.549 1690.52 431.659 1561.8 432.518C1465.69 433.162 1353.06 457.182 1206.04 509.889C1191.61 515.063 1177.27 520.462 1162.94 525.886C1089.48 553.652 1015.1 583.77 943.238 603.817C868.897 624.778 802.423 637.171 737.281 651.48C657.252 669.049 577.155 686.621 495.689 704.092C407.039 723.111 317.177 741.899 230.465 757.789C167.227 769.324 106.414 778.655 47.4908 780.622C38.0735 780.936 28.8187 781.329 19.7247 781.078C-275.687 773.037 -397.343 572.069 -410.736 602.741" stroke="#D0D0FF" stroke-width="0.864782" stroke-miterlimit="10"/>
<path d="M2406.5 661.776C2404.07 641.223 2266.94 738.419 2022.51 604.802C1982.04 582.669 1944.63 559.556 1907.94 539.589C1793.04 476.545 1696.81 433.686 1568.02 430.471C1473.52 428.104 1361.76 448.862 1214.56 500.056C1200.26 505.023 1186.05 510.208 1171.86 515.435C1099.08 542.222 1026.01 571.589 955.21 593.727C881.876 616.832 814.837 633.863 749.211 652.099C668.486 674.53 588.301 696.626 507.64 717.258C419.552 739.798 331.248 760.488 245.864 775.872C183.361 787.085 122.989 794.843 64.3321 794.981C54.949 794.973 45.7102 795.003 36.6604 794.498C-262.577 777.618 -382.879 563.435 -392.922 586.437" stroke="#D0D0FF" stroke-width="0.864782" stroke-miterlimit="10"/>
<path d="M2410.64 651.925C2409.01 638.22 2270.99 745.513 2023.06 612.955C1982.78 591.417 1945.79 568.943 1909.91 548.736C1797.05 484.789 1703.07 435.797 1574.25 428.415C1481.34 423.089 1370.48 440.558 1223.08 490.204C1208.92 494.974 1194.83 499.936 1180.78 504.966C1108.68 530.765 1036.92 559.391 967.173 583.62C894.847 608.868 827.258 630.537 761.132 652.709C679.72 680.009 599.446 706.622 519.574 730.414C432.072 756.484 345.309 779.067 261.247 793.945C199.477 804.844 139.55 811.157 81.1647 809.33C71.8076 809.018 62.6015 808.676 53.5787 807.9C-249.379 782.009 -368.424 554.775 -375.125 570.116" stroke="#D0D0FF" stroke-width="0.864782" stroke-miterlimit="10"/>
<path d="M2414.79 642.075C2413.97 635.227 2275.07 752.55 2023.63 621.118C1983.54 600.165 1946.97 578.348 1911.9 557.893C1801.06 493.05 1709.28 438.004 1580.48 426.369C1489.12 418.117 1379.27 432.465 1231.62 480.37C1217.59 484.96 1203.63 489.683 1189.71 494.515C1118.29 519.326 1047.85 547.21 979.162 573.539C907.852 600.938 839.749 627.32 773.079 653.345C691.033 685.614 610.681 716.802 531.543 743.597C444.691 773.355 359.406 797.672 276.672 812.036C215.638 822.621 156.163 827.48 98.0318 823.698C88.7008 823.081 79.5272 822.35 70.5317 821.32C-236.016 786.255 -353.942 546.142 -357.293 553.804" stroke="#D0D0FF" stroke-width="0.864782" stroke-miterlimit="10"/>
<path d="M2418.93 632.225C2418.93 632.225 2279.15 759.518 2024.17 629.272C1769.19 499.026 1666.29 336.374 1240.14 470.527C813.991 604.681 445.413 870.887 114.873 838.047C-215.667 805.208 -339.479 537.491 -339.479 537.491" stroke="#D0D0FF" stroke-width="0.864782" stroke-miterlimit="10"/>
<path d="M735 867L1432.15 268.5H37.8494L735 867Z" fill="url(#paint0_radial_164_4358)"/>
<path d="M1389.21 107.576L1463.83 55.158L1463.81 55.1919L1463.84 55.1624L1475.33 145.609L1475.35 145.629L1421.05 152.058L1421.05 152.051L1421.03 152.053L1421.03 152.038L1421.02 152.047L1389.21 107.576Z" fill="url(#paint1_angular_164_4358)" fill-opacity="0.43"/>
<path d="M1401.87 195.41L1401.85 195.44L1385.6 115.746L1417.42 160.204L1417.41 160.217L1417.43 160.209L1471.75 153.804L1401.86 195.444L1401.87 195.41Z" fill="url(#paint2_angular_164_4358)" fill-opacity="0.43"/>
<g filter="url(#filter0_b_164_4358)">
<rect x="839" y="-10" width="84" height="79" rx="39.5" fill="url(#paint3_linear_164_4358)" fill-opacity="0.33"/>
</g>
<g filter="url(#filter1_b_164_4358)">
<rect x="-18" y="17" width="84" height="79" rx="39.5" fill="url(#paint4_linear_164_4358)" fill-opacity="0.33"/>
</g>
<g clip-path="url(#clip1_164_4358)">
<path d="M2.61107 293.18L27.2344 205.381L27.2443 205.417L27.245 205.378L93.365 268.154L93.3921 268.158L55.4086 307.488L55.4063 307.48L55.3925 307.494L55.3791 307.487L55.3815 307.496L2.61107 293.18Z" fill="url(#paint5_angular_164_4358)" fill-opacity="0.43"/>
<path d="M67.9788 353.198L67.9875 353.229L4.98345 301.792L57.7512 316.093L57.7549 316.106L57.762 316.09L95.7771 276.766L67.9984 353.226L67.9788 353.198Z" fill="url(#paint6_angular_164_4358)" fill-opacity="0.43"/>
</g>
</g>
<defs>
<filter id="filter0_b_164_4358" x="819" y="-30" width="124" height="119" filterUnits="userSpaceOnUse" color-interpolation-filters="sRGB">
<feFlood flood-opacity="0" result="BackgroundImageFix"/>
<feGaussianBlur in="BackgroundImageFix" stdDeviation="10"/>
<feComposite in2="SourceAlpha" operator="in" result="effect1_backgroundBlur_164_4358"/>
<feBlend mode="normal" in="SourceGraphic" in2="effect1_backgroundBlur_164_4358" result="shape"/>
</filter>
<filter id="filter1_b_164_4358" x="-38" y="-3" width="124" height="119" filterUnits="userSpaceOnUse" color-interpolation-filters="sRGB">
<feFlood flood-opacity="0" result="BackgroundImageFix"/>
<feGaussianBlur in="BackgroundImageFix" stdDeviation="10"/>
<feComposite in2="SourceAlpha" operator="in" result="effect1_backgroundBlur_164_4358"/>
<feBlend mode="normal" in="SourceGraphic" in2="effect1_backgroundBlur_164_4358" result="shape"/>
</filter>
<radialGradient id="paint0_radial_164_4358" cx="0" cy="0" r="1" gradientUnits="userSpaceOnUse" gradientTransform="translate(809.023 940) rotate(-104.944) scale(645.845 1252.8)">
<stop stop-color="white" stop-opacity="0.11"/>
<stop offset="1" stop-color="white" stop-opacity="0"/>
</radialGradient>
<radialGradient id="paint1_angular_164_4358" cx="0" cy="0" r="1" gradientUnits="userSpaceOnUse" gradientTransform="translate(1432.86 125.307) rotate(113.835) scale(76.6808 47.0899)">
<stop stop-color="white"/>
<stop offset="1" stop-color="white" stop-opacity="0"/>
</radialGradient>
<radialGradient id="paint2_angular_164_4358" cx="0" cy="0" r="1" gradientUnits="userSpaceOnUse" gradientTransform="translate(1432.86 125.307) rotate(113.835) scale(76.6808 47.0899)">
<stop stop-color="white"/>
<stop offset="1" stop-color="white" stop-opacity="0"/>
</radialGradient>
<linearGradient id="paint3_linear_164_4358" x1="881" y1="-10" x2="881.02" y2="113.43" gradientUnits="userSpaceOnUse">
<stop stop-color="white"/>
<stop offset="1" stop-color="white" stop-opacity="0"/>
</linearGradient>
<linearGradient id="paint4_linear_164_4358" x1="24" y1="17" x2="24.0205" y2="140.43" gradientUnits="userSpaceOnUse">
<stop stop-color="white"/>
<stop offset="1" stop-color="white" stop-opacity="0"/>
</linearGradient>
<radialGradient id="paint5_angular_164_4358" cx="0" cy="0" r="1" gradientUnits="userSpaceOnUse" gradientTransform="translate(47.6297 279.3) rotate(74.5895) scale(76.6808 47.0899)">
<stop stop-color="white"/>
<stop offset="1" stop-color="white" stop-opacity="0"/>
</radialGradient>
<radialGradient id="paint6_angular_164_4358" cx="0" cy="0" r="1" gradientUnits="userSpaceOnUse" gradientTransform="translate(47.6297 279.3) rotate(74.5895) scale(76.6808 47.0899)">
<stop stop-color="white"/>
<stop offset="1" stop-color="white" stop-opacity="0"/>
</radialGradient>
<clipPath id="clip0_164_4358">
<rect width="1532" height="716" fill="white" transform="translate(-20)"/>
</clipPath>
<clipPath id="clip1_164_4358">
<rect width="163.586" height="163.586" fill="white" transform="translate(-54 222.47) rotate(-15.4105)"/>
</clipPath>
</defs>
</svg>
